<?xml version="1.0" encoding="UTF-8" standalone="no"?>
<!-- Created with Inkscape (http://www.inkscape.org/) -->

<svg
   xmlns:dc="http://purl.org/dc/elements/1.1/"
   xmlns:cc="http://creativecommons.org/ns#"
   xmlns:rdf="http://www.w3.org/1999/02/22-rdf-syntax-ns#"
   xmlns:svg="http://www.w3.org/2000/svg"
   xmlns="http://www.w3.org/2000/svg"
   xmlns:sodipodi="http://sodipodi.sourceforge.net/DTD/sodipodi-0.dtd"
   xmlns:inkscape="http://www.inkscape.org/namespaces/inkscape"
   width="210mm"
   height="297mm"
   viewBox="0 0 210 297"
   version="1.1"
   id="svg8"
   inkscape:version="0.92.1 r"
   sodipodi:docname="icones.svg"
   inkscape:export-filename="/home/bruno/devel/mapa-transoceanica/img/bhs-station-icon.png"
   inkscape:export-xdpi="388"
   inkscape:export-ydpi="388">
  <defs
     id="defs2" />
  <sodipodi:namedview
     id="base"
     pagecolor="#ffffff"
     bordercolor="#666666"
     borderopacity="1.0"
     inkscape:pageopacity="0.0"
     inkscape:pageshadow="2"
     inkscape:zoom="10.571375"
     inkscape:cx="52.689492"
     inkscape:cy="1089.5979"
     inkscape:document-units="mm"
     inkscape:current-layer="layer1"
     showgrid="false"
     inkscape:window-width="1920"
     inkscape:window-height="1038"
     inkscape:window-x="0"
     inkscape:window-y="0"
     inkscape:window-maximized="1" />
  <metadata
     id="metadata5">
    <rdf:RDF>
      <cc:Work
         rdf:about="">
        <dc:format>image/svg+xml</dc:format>
        <dc:type
           rdf:resource="http://purl.org/dc/dcmitype/StillImage" />
        <dc:title />
      </cc:Work>
    </rdf:RDF>
  </metadata>
  <g
     inkscape:label="Camada 1"
     inkscape:groupmode="layer"
     id="layer1">
    <path
       sodipodi:type="star"
       style="opacity:0.90200022;fill:none;fill-opacity:1;stroke-width:0.26458332"
       id="path4525"
       sodipodi:sides="5"
       sodipodi:cx="55.057522"
       sodipodi:cy="97.08239"
       sodipodi:r1="34.086037"
       sodipodi:r2="17.043016"
       sodipodi:arg1="1.0720754"
       sodipodi:arg2="1.7003939"
       inkscape:flatsided="false"
       inkscape:rounded="0"
       inkscape:randomized="0"
       d="M 71.360964,127.01658 52.854966,113.98248 31.626457,121.83806 38.303951,100.21005 24.272885,82.448045 46.905801,82.115297 59.462635,63.282199 66.773053,84.704557 88.564668,90.827068 70.449839,104.39956 Z"
       inkscape:transform-center-x="-1.361254"
       inkscape:transform-center-y="-1.9330018" />
    <circle
       style="opacity:0.9020004;fill:#fd4d3d;fill-opacity:1;stroke:#fd4d3d;stroke-width:0.00051857;stroke-miterlimit:4;stroke-dasharray:0.00051857, 0.00103714;stroke-dashoffset:0;stroke-opacity:1"
       id="path4533"
       cx="3.8383918"
       cy="3.8199592"
       inkscape:export-xdpi="96.666046"
       inkscape:export-ydpi="96.666046"
       r="3.3070323" />
    <path
       style="fill:#fd4d3d;fill-opacity:1;fill-rule:evenodd;stroke:#fd4d3d;stroke-width:0.40585575;stroke-linecap:butt;stroke-linejoin:miter;stroke-miterlimit:4;stroke-dasharray:0.40585574, 0.40585574;stroke-dashoffset:0;stroke-opacity:1"
       d="M 3.84852,7.130419 3.804858,12.418737"
       id="path4535"
       inkscape:connector-curvature="0"
       sodipodi:nodetypes="cc"
       inkscape:export-xdpi="96.666046"
       inkscape:export-ydpi="96.666046" />
    <path
       d="m 2.8466341,1.736951 c -0.3607858,0 -0.79375,0.1966648 -0.79375,0.7265723 V 3.9063227 4.911951 c 0,0 0,0.2645828 0.2645834,0.2645828 v 0.264584 c 0,0 0,0.264583 0.2645833,0.264583 0.2645833,0 0.2645833,-0.264583 0.2645833,-0.264583 v -0.264584 h 1.8520834 v 0.264584 c 0,0 0,0.264583 0.2645833,0.264583 0.2645833,0 0.2645833,-0.264583 0.2645833,-0.264583 v -0.264584 c 0,0 0.2645834,0 0.2645834,-0.2645828 V 2.4635233 c 0,-0.5412052 -0.327025,-0.7265723 -0.6878109,-0.7265723 z m 0.066146,0.396875 h 1.7197916 c 0.036645,0 0.066146,0.029501 0.066146,0.066146 0,0.036645 -0.029501,0.066146 -0.066146,0.066146 H 2.91278 c -0.036645,0 -0.066146,-0.029501 -0.066146,-0.066146 0,-0.036645 0.029501,-0.066146 0.066146,-0.066146 z M 2.5820508,2.530701 h 2.38125 c 0.2645833,0 0.2645833,0.2557992 0.2645833,0.2557992 v 0.8025341 c 0,0 0,0.2645834 -0.2645833,0.2645834 h -2.38125 c -0.2645833,0 -0.2645833,-0.2645834 -0.2645833,-0.2645834 v -0.79375 c 0,0 0,-0.2645833 0.2645833,-0.2645833 z m 0,1.8520833 c 0.1461294,0 0.2645833,0.118454 0.2645833,0.2645834 0,0.1461293 -0.1184539,0.2645833 -0.2645833,0.2645833 -0.1461294,0 -0.2645833,-0.118454 -0.2645833,-0.2645833 0,-0.1461294 0.1184539,-0.2645834 0.2645833,-0.2645834 z m 2.38125,0 c 0.1461294,0 0.2645833,0.118454 0.2645833,0.2645834 0,0.1461293 -0.1184539,0.2645833 -0.2645833,0.2645833 -0.1461294,0 -0.2645833,-0.118454 -0.2645833,-0.2645833 0,-0.1461294 0.1184539,-0.2645834 0.2645833,-0.2645834 z"
       id="path8043-3"
       inkscape:connector-curvature="0"
       style="fill:#ffffff;fill-opacity:1;stroke-width:0.26458332"
       inkscape:export-xdpi="96"
       inkscape:export-ydpi="96" />
    <circle
       style="opacity:0.9020004;fill:#fd4d3d;fill-opacity:1;stroke:#fd4d3d;stroke-width:0.00051857;stroke-miterlimit:4;stroke-dasharray:0.00051857, 0.00103714;stroke-dashoffset:0;stroke-opacity:1"
       id="path4533-0"
       cx="18.543589"
       cy="0.69103831"
       inkscape:export-xdpi="96.666046"
       inkscape:export-ydpi="96.666046"
       r="0" />
    <circle
       r="0"
       inkscape:export-ydpi="96.666046"
       inkscape:export-xdpi="96.666046"
       cy="3.5860984"
       cx="15.330981"
       id="ellipse8125"
       style="opacity:0.9020004;fill:#fd4d3d;fill-opacity:1;stroke:#fd4d3d;stroke-width:0.00051857;stroke-miterlimit:4;stroke-dasharray:0.00051857, 0.00103714;stroke-dashoffset:0;stroke-opacity:1" />
    <circle
       style="opacity:0.9020004;fill:#fd4d3d;fill-opacity:1;stroke:#fd4d3d;stroke-width:0.00051857;stroke-miterlimit:4;stroke-dasharray:0.00051857, 0.00103714;stroke-dashoffset:0;stroke-opacity:1"
       id="path4533-6"
       cx="3.8383918"
       cy="3.8199592"
       inkscape:export-xdpi="96.666046"
       inkscape:export-ydpi="96.666046"
       r="0" />
    <path
       inkscape:export-ydpi="96.666046"
       inkscape:export-xdpi="96.666046"
       sodipodi:nodetypes="cc"
       inkscape:connector-curvature="0"
       id="path8127-6"
       d="m 14.996105,1.5176601 -0.04366,5.288316"
       style="fill:#f58b33;fill-opacity:1;fill-rule:evenodd;stroke:#f58b33;stroke-width:0.40585575;stroke-linecap:butt;stroke-linejoin:miter;stroke-miterlimit:4;stroke-dasharray:0.40585574, 0.40585574;stroke-dashoffset:0;stroke-opacity:1" />
    <circle
       style="opacity:0.9020004;fill:#f58b33;fill-opacity:1;stroke:#fd4d3d;stroke-width:0.00051857;stroke-miterlimit:4;stroke-dasharray:0.00051857, 0.00103714;stroke-dashoffset:0;stroke-opacity:1"
       id="path4533-8-7"
       cx="14.931144"
       cy="10.122674"
       inkscape:export-xdpi="96.666046"
       inkscape:export-ydpi="96.666046"
       r="3.3070323" />
    <path
       id="path8227"
       d="m 16.700995,9.8989333 c -0.0011,-0.182669 -0.126656,-0.341022 -0.30427,-0.383646 L 16.028954,8.6580379 v 0 0 0 c -0.02029,-0.0494 -0.06829,-0.08176 -0.121709,-0.08202 h -1.852083 c -0.04964,9e-4 -0.09459,0.0295 -0.116417,0.07408 v 0 0 0 l -0.373062,0.8625414 c -0.178594,0.04286 -0.30443,0.202644 -0.304271,0.386292 v 0.9260407 h 0.264583 v 0.264584 c 0,0.146129 0.118454,0.264583 0.264584,0.264583 0.146129,0 0.264583,-0.118454 0.264583,-0.264583 v -0.264584 h 1.852083 v 0.264584 c 0,0.146129 0.118454,0.264583 0.264584,0.264583 0.146129,0 0.264583,-0.118454 0.264583,-0.264583 v -0.264584 h 0.264583 z M 14.134537,8.8405999 h 1.693333 l 0.277813,0.6614584 h -2.248958 z m -0.343958,1.5874991 c -0.14613,0 -0.264584,-0.118454 -0.264584,-0.264583 0,-0.146129 0.118454,-0.2645827 0.264584,-0.2645827 0.146129,0 0.264583,0.1184537 0.264583,0.2645827 0,0.146129 -0.118454,0.264583 -0.264583,0.264583 z m 2.38125,0 c -0.14613,0 -0.264584,-0.118454 -0.264584,-0.264583 0,-0.146129 0.118454,-0.2645827 0.264584,-0.2645827 0.146129,0 0.264583,0.1184537 0.264583,0.2645827 0,0.146129 -0.118454,0.264583 -0.264583,0.264583 z"
       inkscape:connector-curvature="0"
       style="fill:#ffffff;fill-opacity:1;stroke-width:0.26458332"
       inkscape:export-xdpi="96"
       inkscape:export-ydpi="96" />
    <circle
       style="opacity:0.9020004;fill:#8dc53f;fill-opacity:1;stroke:#fd4d3d;stroke-width:0.00051857;stroke-miterlimit:4;stroke-dasharray:0.00051857, 0.00103714;stroke-dashoffset:0;stroke-opacity:1"
       id="path4533-8-0-5"
       cx="27.402409"
       cy="10.639125"
       inkscape:export-xdpi="96.666046"
       inkscape:export-ydpi="96.666046"
       r="3.3070323" />
    <path
       inkscape:export-ydpi="96.666046"
       inkscape:export-xdpi="96.666046"
       sodipodi:nodetypes="cc"
       inkscape:connector-curvature="0"
       id="path8127-8-4"
       d="m 27.440888,2.0199868 -0.04366,5.288314"
       style="fill:#8dc53f;fill-opacity:1;fill-rule:evenodd;stroke:#8dc53f;stroke-width:0.40585575;stroke-linecap:butt;stroke-linejoin:miter;stroke-miterlimit:4;stroke-dasharray:0.40585574, 0.40585574;stroke-dashoffset:0;stroke-opacity:0.99640288" />
    <path
       d="m 27.40241,8.7269389 c 1.095957,0 1.984375,0.8884174 1.984375,1.9843741 0,1.095957 -0.888418,1.984375 -1.984375,1.984375 -1.095957,0 -1.984375,-0.888418 -1.984375,-1.984375 0,-1.0959567 0.888418,-1.9843741 1.984375,-1.9843741 z m 0,0.4409547 c -0.852408,0 -1.543394,0.6910117 -1.543394,1.5434194 0,0.852408 0.690986,1.543421 1.543394,1.543421 0.852408,0 1.543394,-0.691013 1.543394,-1.543421 0,-0.8524077 -0.690986,-1.5434194 -1.543394,-1.5434194 z"
       inkscape:connector-curvature="0"
       id="path8564-5-6-4-4"
       style="fill:#fbffff;fill-opacity:1;stroke-width:0.26458332"
       inkscape:export-xdpi="96"
       inkscape:export-ydpi="96" />
  </g>
</svg>
